<?xml version="1.0" encoding="UTF-8"?>
<!DOCTYPE svg PUBLIC "-//W3C//DTD SVG 1.1//EN" "http://www.w3.org/Graphics/SVG/1.1/DTD/svg11.dtd">
<!-- Creator: CorelDRAW 2018 (64-Bit Evaluation Version) -->
<svg xmlns="http://www.w3.org/2000/svg" xml:space="preserve" width="8.26772in" height="11.6929in" version="1.1" style="shape-rendering:geometricPrecision; text-rendering:geometricPrecision; image-rendering:optimizeQuality; fill-rule:evenodd; clip-rule:evenodd"
viewBox="0 0 8267.72 11692.91"
 xmlns:xlink="http://www.w3.org/1999/xlink">
 <defs>
  <style type="text/css">
   <![CDATA[
    .fil1 {fill:#D6BF13}
    .fil0 {fill:#F7DF1E}
    .fil2 {fill:#0A0A0A;fill-rule:nonzero}
   ]]>
  </style>
 </defs>
 <g id="Layer_x0020_1">
  <metadata id="CorelCorpID_0Corel-Layer"/>
  <g id="_2138911345936">
   <polygon class="fil0" points="2800.52,4513.12 5467.19,4513.12 5467.19,7179.79 2800.52,7179.79 "/>
   <path class="fil1" d="M4759.39 5425.86l-405.07 -0.02c-60.33,-0 -84.37,54.8 -58.89,104.12 24.61,47.64 37.98,103.67 37.98,165.17 0,136.75 -67.1,247 -176.68,297.64 -31.76,14.68 -49.56,46.94 -45.05,81.64 1.26,9.65 2.07,19.41 2.46,29.21l4.62 117.43 -12.49 0c16.83,34.59 25.37,74.45 25.37,119.19 0,195.3 -153.47,287.94 -332.72,287.94 -80.51,0 -156.28,-18.57 -216.28,-56.23 -27.48,-17.25 -60.77,-16.35 -87.28,2.37 -49.46,34.93 -112.85,53.86 -184.22,53.86 -171.54,0 -282.97,-111.34 -282.97,-282.9l0 -1485.39c0,-43.37 35.37,-78.74 78.74,-78.74l164.12 0c6.87,0 12.74,-0.73 19.39,-2.43 23.1,-5.87 47.04,-8.35 71.3,-8.35 31.41,0 60.33,4.11 87.07,13.48 17.48,6.13 34.34,6.17 51.84,0.11 26.72,-9.25 55.36,-13.59 84.97,-13.59 44.93,0 88.05,11.06 125.57,31.61 23.2,12.71 48.85,13.27 72.59,1.59 47.79,-23.52 103.83,-33.2 160.26,-33.2 30.04,0 60.17,2.61 89.08,8.95 5.82,1.28 10.91,1.83 16.87,1.83l237.34 0c6.62,0 12.27,-0.68 18.7,-2.25 24.18,-5.91 49.19,-8.53 74.38,-8.53 50.87,0 97.98,12.85 137.2,36.96 24.59,15.12 53.19,15.93 78.61,2.23 48.35,-26.06 104.27,-39.19 163.19,-39.19 192.61,0 320.28,137.66 320.28,327.74 0,189.26 -128.51,327.74 -320.28,327.74z"/>
   <path class="fil2" d="M4001.24 6108.07c-4.15,-105.31 -82.09,-180.76 -221.39,-180.76 -134.33,0 -201.49,70.48 -201.49,169.15 0,69.65 33.17,109.45 92.04,135.99 38.97,17.41 82.92,27.36 150.91,42.29 68.82,14.93 85.41,37.31 85.41,69.65 0,48.92 -38.97,77.94 -106.96,77.94 -73.8,0 -121.06,-34.82 -122.72,-91.21l-111.11 0c2.49,123.55 97.02,184.08 233,184.08 128.52,0 219.74,-53.9 219.74,-174.96 0,-77.94 -38.14,-111.94 -86.24,-133.5 -40.63,-18.24 -101.16,-33.17 -163.35,-48.09 -61.36,-14.93 -85.41,-34.83 -85.41,-69.65 0,-41.46 34,-64.68 98.67,-64.68 69.65,0 103.65,27.36 109.45,83.75l109.45 0zm-860.08 222.8l107.8 0 0 7.71c0,55.56 14.93,82.92 62.19,82.92 53.07,0 65.51,-24.05 65.51,-84.58l0 -391.38 115.26 0 0 402.16c0,100.33 -62.19,167.5 -180.76,167.5 -106.13,0 -169.98,-58.04 -169.98,-170.81l0 -13.52zm107.8 -1008.57l-107.8 0 0 988.78 107.8 0.11 0 -743.75 119.72 0 0 -76.28 -119.72 0 0 -168.85zm1510.43 -9.42c126.86,0 207.3,-85.41 207.3,-214.76 0,-130.18 -79.6,-214.76 -207.3,-214.76 -129.35,0 -209.79,85.41 -209.79,214.76 0,126.87 77.94,214.76 209.79,214.76zm0 -90.38c-65.51,0 -98.68,-41.46 -98.68,-124.38 0,-82.92 33.17,-123.55 98.68,-123.55 65.5,0 98.67,40.63 98.67,123.55 0,82.92 -33.17,124.38 -98.67,124.38zm-243.83 79.6l0 -282.75c0,-88.72 -57.22,-135.99 -135.16,-135.99 -65.51,0 -106.96,24.87 -131.84,70.48l0 -59.7 -102.82 0 0 407.96 107.8 0 0 -233.83c0,-62.19 27.36,-93.7 83.75,-93.7 51.41,0 69.65,17.41 69.65,80.43l0 247.1 108.63 0zm-397.4 0l0 -257.88c0,-102.82 -44.78,-160.86 -174.13,-160.86 -131.01,0 -177.44,58.87 -179.1,143.45l100.33 0c4.98,-36.48 24.88,-60.53 73.8,-60.53 42.29,0 68.82,15.76 68.82,42.29 0,28.19 -14.93,38.97 -68.82,46.43 -108.63,14.93 -187.4,28.19 -187.4,145.94 0,66.33 43.12,111.94 135.99,111.94 54.72,0 97.84,-19.07 123.55,-47.26 0.83,12.44 3.32,26.54 6.63,36.48l100.33 0zm-108.62 -155.06c-0.83,48.09 -42.29,88.72 -97.85,88.72 -34,0 -52.24,-14.93 -52.24,-45.61 0,-34.83 19.9,-52.24 81.26,-63.85 39.8,-7.46 58.87,-13.27 69.65,-24.05l-0.83 44.78zm-284.62 155.06l0 -282.75c0,-76.29 -57.21,-135.99 -139.3,-135.99 -51.41,0 -87.89,19.9 -110.28,64.68 -31.51,-47.26 -58.04,-64.68 -113.6,-64.68 -53.9,0 -92.04,16.58 -119.4,70.48l0 -59.7 -101.16 0 0 407.96 107.8 0 0 -247.93c0,-53.07 22.39,-79.6 65.5,-79.6 47.26,0 64.68,16.59 64.68,82.09l0 245.44 107.8 0 0 -243.78c0,-49.75 29.02,-87.06 68.82,-87.06 38.14,0 63.85,34.83 63.85,83.75l0 247.1 105.31 0zm288.21 607.8c126.86,0 207.3,-85.41 207.3,-214.76 0,-130.18 -79.6,-214.76 -207.3,-214.76 -129.35,0 -209.79,85.41 -209.79,214.76 0,126.87 77.94,214.76 209.79,214.76zm0 -90.38c-65.51,0 -98.68,-41.46 -98.68,-124.38 0,-82.92 33.17,-123.55 98.68,-123.55 65.5,0 98.67,40.63 98.67,123.55 0,82.92 -33.17,124.38 -98.67,124.38zm-439.19 90.38c126.86,0 207.3,-85.41 207.3,-214.76 0,-130.18 -79.6,-214.76 -207.3,-214.76 -129.35,0 -209.79,85.41 -209.79,214.76 0,126.87 77.94,214.76 209.79,214.76zm0 -90.38c-65.51,0 -98.68,-41.46 -98.68,-124.38 0,-82.92 33.17,-123.55 98.68,-123.55 65.5,0 98.67,40.63 98.67,123.55 0,82.92 -33.17,124.38 -98.67,124.38zm-1.24 -183.06c32.41,0 58.68,26.27 58.68,58.68 0,32.41 -26.27,58.68 -58.68,58.68 -32.41,0 -58.68,-26.27 -58.68,-58.68 0,-32.41 26.27,-58.68 58.68,-58.68zm439.18 0c32.41,0 58.68,26.27 58.68,58.68 0,32.41 -26.27,58.68 -58.68,58.68 -32.41,0 -58.68,-26.27 -58.68,-58.68 0,-32.41 26.27,-58.68 58.68,-58.68z"/>
  </g>
 </g>
</svg>
